PathFileType	4	(X/Y/Z)	C:/Users/beibeiliu/ov580/test_trc/User3\sequence.10_training_dense_left.trc
DataRate	CameraRate	NumFrames	NumMarkers	Units	OrigDataRate	OrigDataStartFrame	OrigNumFrames
120	120	15	19	mm	120	130	155
Frame#	Time	ThumbCMC			ThumbMCP			ThumbIP			ThumbTip			IndexMCP			IndexPIP			IndexTip			MiddleMCP			MiddlePIP			MiddleTip			RingMCP			RingPIP			RingTip			PinkyMCP			PinkyPIP			PinkyTip			BackHand1			BackHand2			BackHand3	
		X0	Y0	Z0	X1	Y1	Z1	X2	Y2	Z2	X3	Y3	Z3	X4	Y4	Z4	X5	Y5	Z5	X6	Y6	Z6	X7	Y7	Z7	X8	Y8	Z8	X9	Y9	Z9	X10	Y10	Z10	X11	Y11	Z11	X12	Y12	Z12	X13	Y13	Z13	X14	Y14	Z14	X15	Y15	Z15	X16	Y16	Z16	X17	Y17	Z17	X18	Y18	Z18	
129	1.075	-185.072	5.03862	-18.7452	-188.854	24.2667	-39.6208	-194.673	40.3692	-66.2899	-198.645	52.4263	-77.4046	-148.332	-12.1661	-83.066	-140.171	-9.67778	-112.808	-134.954	-7.54159	-132.2	-120.564	-26.7075	-78.4512	-111.181	-24.8078	-107.086	-96.1729	-22.8179	-132.851	-102.863	-27.976	-64.2431	-89.893	-30.1534	-82.5294	-74.525	-29.2283	-104.921	-91.1825	-25.5686	-36.6596	-76.102	-26.525	-52.3136	-59.2488	-31.2371	-68.337	-132.255	-36.5622	-20.8404	-145.147	-40.1749	5.27567	-166.266	-26.9543	-23.0953	
130	1.08333	-199.198	-13.5159	-15.6159	-209.041	0.736676	-40.0265	-219.53	12.4575	-63.4847	-229.932	21.6708	-78.1686	-176.124	-42.8354	-78.0865	-172.808	-47.7523	-107.088	-169.236	-48.5511	-132.928	-149.589	-54.7082	-77.8999	-142.439	-59.1299	-104.193	-133.511	-59.0405	-133.808	-126.742	-51.4288	-61.2003	-118.752	-57.0329	-89.7636	-105.132	-59.9445	-113.219	-110.245	-42.3982	-45.3004	-97.6412	-44.737	-59.7689	-80.7952	-50.2576	-75.5824	-143.563	-53.9247	-19.4799	-151.239	-48.7527	11.065	-180.151	-45.1852	-11.3772	
131	1.09167	-211.921	-13.913	-6.65136	-221.016	-2.07261	-33.2088	-235.157	8.04676	-54.6631	-244.525	16.8098	-72.6311	-210.835	-58.1961	-69.925	-216.456	-64.4604	-92.8541	-215.522	-69.2078	-118.912	-188.145	-74.7712	-70.9757	-188.602	-82.187	-97.888	-183.579	-86.924	-130.486	-163.288	-72.2641	-61.8783	-159.336	-83.5803	-86.1868	-152.708	-88.438	-110.471	-143.798	-63.2658	-48.2893	-130.746	-70.7818	-65.3868	-118.913	-81.8221	-85.1848	-167.69	-63.6519	-12.2207	-171.864	-56.5813	15.4872	-199.715	-49.1268	-1.43418	
132	1.1	-218.717	1.22873	-5.07082	-225.794	16.6554	-31.3917	-237.348	27.1156	-53.7472	-242.631	38.0305	-68.3688	-242.455	-43.967	-59.9083	-254.372	-50.5907	-84.1125	-262.416	-52.7674	-106.978	-231.174	-67.075	-63.0985	-237.748	-76.5096	-88.8644	-241.953	-82.3658	-122.249	-210.947	-72.3106	-57.9881	-213.115	-85.9881	-82.0958	-216.548	-91.4653	-106.337	-183.49	-72.8796	-47.2248	-180.316	-86.2772	-68.0847	-176.172	-97.3412	-89.1314	-200.017	-59.7451	-11.7827	-192.887	-50.3906	21.0724	-223.501	-36.1775	0.0206947	
133	1.10833	-212.646	24.8487	-5.81319	-212.774	38.2253	-28.7011	-219.495	50.7005	-53.7269	-224.686	65.5537	-73.1423	-261.354	-6.50501	-50.9728	-277.14	-8.39318	-74.2717	-290.696	-7.49541	-97.7765	-261.607	-34.3513	-52.5547	-278.573	-35.393	-76.7762	-288.215	-43.5017	-106.189	-242.964	-52.9582	-46.9953	-259.183	-57.2502	-69.7174	-269.197	-63.8977	-97.9141	-220.39	-65.0308	-40.7454	-229.152	-77.753	-58.0941	-236.886	-84.603	-78.5658	-223.782	-41.4278	-2.52281	-209.702	-37.0624	22.0677	-229.584	-10.8294	7.12345	
134	1.11667	-192.787	33.6688	-6.66964	-194.23	46.2555	-36.1758	-195.472	61.1681	-59.4331	-193.275	73.7397	-76.9017	-257.32	27.2236	-47.8497	-274.586	39.2508	-71.6213	-286.915	38.2427	-90.1822	-269.245	6.22915	-46.845	-287.287	7.57557	-66.7691	-303.48	11.4283	-99.2329	-261.584	-20.2828	-41.8371	-281.127	-17.9094	-62.3557	-295.926	-22.8587	-88.4698	-248.859	-41.8669	-34.8162	-265.015	-45.2762	-50.9174	-278.05	-50.5382	-68.9069	-234.79	-19.6224	-5.31624	-220.038	-18.2288	20.0905	-226.151	13.9862	6.17342	
135	1.125	-169.141	34.3408	-8.05172	-163.524	45.5762	-36.5028	-161.707	58.9066	-64.7993	-153.467	69.9296	-81.3775	-235.241	54.3645	-53.7285	-248.015	65.304	-74.7874	-259.457	72.9088	-94.5899	-252.674	38.3232	-46.9516	-267.905	49.2442	-67.0352	-288.446	53.4571	-98.5386	-255.751	17.2294	-43.0874	-277.344	20.6253	-61.0736	-290.47	25.864	-83.9068	-247.607	-11.6105	-31.2355	-272.276	-9.65087	-44.2086	-289.05	-9.21281	-58.7048	-228.731	4.49712	-2.91395	-216.61	-6.07797	18.98	-206.846	29.1986	4.14743	
136	1.13333	-147.768	26.2598	-14.773	-133.536	34.207	-41.9455	-122.5	41.004	-64.6017	-113.743	47.3227	-85.9797	-195.922	62.2892	-64.7253	-203.489	72.5642	-86.2858	-210.351	80.3507	-106.94	-219.385	56.1311	-56.4002	-229.834	69.5731	-80.0029	-241.344	79.2297	-110.707	-230.947	34.8809	-47.1177	-244.598	46.5565	-64.523	-260.915	54.7516	-90.7917	-237.435	13.1825	-34.0506	-255.554	18.2513	-44.6128	-272.615	28.6293	-62.5907	-208.088	19.9962	-5.74509	-202.397	9.72391	18.3386	-182.698	35.1465	-1.15351	
137	1.14167	-123.446	15.1185	-15.4526	-103.982	12.7242	-38.2404	-93.2781	12.2517	-66.9263	-81.2916	10.4869	-86.3037	-154.804	46.1179	-76.1322	-152.574	52.0298	-105.375	-154.966	56.2	-128.858	-179.727	47.2835	-71.5701	-185.283	58.7903	-101.365	-195.041	63.9187	-130.47	-200.419	35.8962	-58.8675	-210.836	46.592	-80.8532	-218.146	55.7818	-109.469	-210.536	20.5388	-43.6137	-226.658	30.1636	-58.5093	-237.372	39.4259	-72.456	-185.041	27.4923	-14.5093	-180.791	19.2273	12.3363	-152.487	36.083	-10.3697	
138	1.15	-106.557	3.6593	-10.372	-88.1816	-6.54494	-32.2431	-69.8375	-15.3063	-59.7771	-57.8157	-23.6107	-72.6044	-127.85	20.1769	-86.8181	-126.066	16.3601	-114.557	-122.528	12.1053	-139.489	-155.746	27.4973	-87.4587	-155.012	26.973	-116.251	-158.23	25.6219	-145.298	-174.62	22.2187	-70.714	-180.449	26.84	-96.8586	-190.797	27.8149	-121.482	-188.789	14.2666	-55.2416	-204.259	20.2188	-72.1305	-211.993	25.5431	-88.441	-169.143	26.6956	-27.1378	-163.554	24.8641	6.40107	-132.409	29.1402	-19.7326	
139	1.15833	-93.4896	-2.12014	-6.11066	-74.4355	-18.0976	-21.9367	-58.819	-33.7122	-40.6726	-46.0451	-44.2031	-49.2449	-105.747	-8.3001	-83.693	-99.8068	-20.5868	-108.236	-99.3516	-29.988	-127.063	-136.871	-1.21471	-91.7483	-132.013	-9.0019	-112.76	-128.556	-19.8252	-142.232	-157.875	-1.75175	-78.0715	-162.269	-4.85943	-104.5	-163.644	-10.8874	-129.537	-175.018	-4.84455	-55.0352	-186.079	-4.65553	-76.4604	-195.56	-6.66423	-100.252	-153.471	16.2534	-28.8736	-155.751	24.8968	-6.11908	-123.164	20.6088	-19.4617	
140	1.16667	-89.8129	-2.19021	2.0456	-67.0098	-18.8784	-4.03339	-45.4151	-36.0884	-16.2476	-26.349	-47.5351	-21.6493	-90.912	-28.3391	-72.5294	-79.3819	-43.9998	-92.566	-73.2849	-56.3994	-108.772	-114.828	-25.2978	-80.1911	-109.1	-39.0363	-103.687	-98.9353	-56.5686	-130.172	-138.586	-25.07	-73.9586	-137.613	-36.1111	-99.9914	-136.334	-47.9935	-121.623	-160.904	-26.367	-56.8505	-167.396	-33.4277	-76.6641	-169.147	-40.873	-96.3253	-144.588	3.03467	-32.2941	-150.028	18.6835	-6.2263	-112.45	14.6012	-22.3475	
141	1.175	-89.0778	10.2796	7.88554	-64.7109	-3.8352	3.05996	-35.9517	-11.0821	-1.55381	-19.7903	-19.3312	-3.66632	-75.1262	-23.9539	-59.9115	-60.3182	-37.6839	-75.473	-43.934	-51.7722	-93.2185	-101.086	-31.867	-72.7305	-82.2011	-46.7769	-94.6046	-69.6539	-62.103	-113.854	-124.931	-40.6377	-69.5601	-119.238	-52.7224	-87.7978	-113.739	-66.7308	-107.357	-146.463	-44.4642	-54.5715	-147.195	-54.8778	-68.1806	-145.639	-67.8496	-91.8195	-139.326	-9.22049	-34.7353	-152.986	8.01208	-13.7794	-117.129	12.4837	-19.7089	
142	1.18333	-99.2358	28.7109	7.30777	-70.4009	24.3177	1.33751	-41.0925	26.2288	-4.29215	-20.9411	26.4272	-6.95835	-73.5367	-6.1077	-60.6155	-54.3796	-17.0058	-76.6869	-37.7711	-24.7277	-90.1152	-88.3758	-24.3615	-70.8965	-72.8619	-35.7568	-89.5847	-51.6874	-50.1575	-110.558	-108.656	-39.1346	-62.0141	-99.95	-53.445	-81.5162	-83.3061	-64.4565	-103.704	-127.516	-55.0298	-47.4367	-120.643	-65.0339	-61.3268	-119.265	-80.9521	-78.5755	-136.72	-14.5291	-31.3536	-157.025	-5.58571	-13.3636	-127.094	14.4973	-21.0894	
143	1.19167	-115.874	37.1362	-0.502712	-87.984	42.8747	-8.18846	-64.2121	57.4603	-16.5741	-45.4937	66.8386	-22.3867	-84.9913	10.9696	-67.5837	-67.2432	8.92326	-85.6675	-49.153	6.96209	-102.54	-92.6692	-15.7974	-76.3537	-73.843	-19.2774	-96.5003	-51.2455	-21.0004	-118.194	-102.731	-34.196	-61.9756	-88.211	-45.0608	-84.9528	-75.0695	-50.7391	-101.079	-110.433	-52.3786	-40.5607	-99.9219	-62.5344	-58.4086	-90.289	-79.2379	-76.2961	-135.137	-18.564	-32.5035	-155.522	-18.8021	-8.48688	-137.115	10.6253	-21.6706	
